<svg width="295" height="305" viewBox="0 0 295 305" fill="none" xmlns="http://www.w3.org/2000/svg">
<path d="M120.809 120.907L85.7434 228.829C85.2079 230.477 85.7945 232.282 87.1965 233.301L176.649 298.292C178.051 299.31 179.949 299.31 181.351 298.292L273.155 231.593" stroke="#9FCBAF" stroke-width="10"/>
<path d="M120.809 120.907L234.285 120.907C236.017 120.907 237.553 122.023 238.089 123.671L273.155 231.593" stroke="#FF9901" stroke-width="10" stroke-linecap="round"/>
<path d="M5.00011 116C2.23869 116 0.000107053 118.239 0.000106812 121C0.00010657 123.761 2.23869 126 5.00011 126L5.00011 116ZM5.00011 126L121.382 126L121.382 116L5.00011 116L5.00011 126Z" fill="#FF9901"/>
<path d="M121 4.99986L121 121.381" stroke="#FF9901" stroke-width="10" stroke-linecap="round" stroke-linejoin="round"/>
<path d="M127.005 238.768C125.021 238.768 123.485 238.224 122.397 237.136C121.373 235.984 120.861 234.416 120.861 232.432V176.56C120.861 174.512 121.405 172.976 122.493 171.952C123.581 170.864 125.117 170.32 127.101 170.32H150.237C157.661 170.32 163.389 172.176 167.421 175.888C171.453 179.6 173.469 184.784 173.469 191.44C173.469 198.096 171.453 203.312 167.421 207.088C163.389 210.8 157.661 212.656 150.237 212.656H133.149V232.432C133.149 234.416 132.637 235.984 131.613 237.136C130.589 238.224 129.053 238.768 127.005 238.768ZM133.149 202.96H148.317C152.669 202.96 155.965 202 158.205 200.08C160.445 198.096 161.565 195.216 161.565 191.44C161.565 187.664 160.445 184.816 158.205 182.896C155.965 180.976 152.669 180.016 148.317 180.016H133.149V202.96Z" fill="#9FCBAF"/>
<path d="M210.366 238.768C208.638 238.768 207.198 238.384 206.046 237.616C204.958 236.784 204.062 235.568 203.358 233.968L178.302 177.712C177.598 176.112 177.406 174.704 177.726 173.488C178.046 172.272 178.718 171.312 179.742 170.608C180.766 169.904 181.982 169.552 183.39 169.552C185.246 169.552 186.622 169.968 187.518 170.8C188.478 171.568 189.278 172.752 189.918 174.352L212.67 227.056H208.542L231.198 174.256C231.902 172.72 232.734 171.568 233.694 170.8C234.654 169.968 235.998 169.552 237.726 169.552C239.134 169.552 240.286 169.904 241.182 170.608C242.142 171.312 242.75 172.272 243.006 173.488C243.262 174.704 243.038 176.112 242.334 177.712L217.278 233.968C216.574 235.568 215.678 236.784 214.59 237.616C213.566 238.384 212.158 238.768 210.366 238.768Z" fill="#FF9901"/>
<circle cx="273" cy="234" r="20" fill="#0A5394" stroke="#FBFEFF" stroke-width="4"/>
</svg>
