<svg width="480" height="305" viewBox="0 0 480 305" fill="none" xmlns="http://www.w3.org/2000/svg">
    <g fill="none" stroke-width="13" stroke-linecap="round" stroke-linejoin="round">
        <path d="M121 121 L86 229 L181 298 L273 232" stroke="#9FCBAF"/>
        <path d="M121 121 L236 121 L273 232" stroke="#FF9901"/>
        <path d="M121 121 L121 12" stroke="#FF9901"/>
        <path d="M121 121 L12 121" stroke="#FF9901"/>
    </g>
    <path d="M155.048 258.024C152.403 258.024 150.355 257.299 148.904 255.848C147.539 254.312 146.856 252.221 146.856 249.576V175.08C146.856 172.349 147.581 170.301 149.032 168.936C150.483 167.485 152.531 166.76 155.176 166.76H186.024C195.923 166.76 203.56 169.235 208.936 174.184C214.312 179.133 217 186.045 217 194.92C217 203.795 214.312 210.749 208.936 215.784C203.56 220.733 195.923 223.208 186.024 223.208H163.24V249.576C163.24 252.221 162.557 254.312 161.192 255.848C159.827 257.299 157.779 258.024 155.048 258.024ZM163.24 210.28H183.464C189.267 210.28 193.661 209 196.648 206.44C199.635 203.795 201.128 199.955 201.128 194.92C201.128 189.885 199.635 186.088 196.648 183.528C193.661 180.968 189.267 179.688 183.464 179.688H163.24V210.28Z" fill="#9FCBAF"/>
    <path d="M363.696 258.024C361.392 258.024 359.472 257.512 357.936 256.488C356.485 255.379 355.291 253.757 354.352 251.624L320.944 176.616C320.005 174.483 319.749 172.605 320.176 170.984C320.603 169.363 321.499 168.083 322.864 167.144C324.229 166.205 325.851 165.736 327.728 165.736C330.203 165.736 332.037 166.291 333.232 167.4C334.512 168.424 335.579 170.003 336.432 172.136L366.768 242.408H361.264L391.472 172.008C392.411 169.96 393.52 168.424 394.8 167.4C396.08 166.291 397.872 165.736 400.176 165.736C402.053 165.736 403.589 166.205 404.784 167.144C406.064 168.083 406.875 169.363 407.216 170.984C407.557 172.605 407.259 174.483 406.32 176.616L372.912 251.624C371.973 253.757 370.779 255.379 369.328 256.488C367.963 257.512 366.085 258.024 363.696 258.024Z" fill="#FF9901"/>
    <path d="M225.062 257.602C223.915 257.602 223.027 257.287 222.396 256.656C221.823 256.025 221.536 255.137 221.536 253.99V218.128C221.536 216.981 221.823 216.121 222.396 215.548C222.969 214.917 223.801 214.602 224.89 214.602C225.979 214.602 226.811 214.917 227.384 215.548C228.015 216.121 228.33 216.981 228.33 218.128V225.094H227.47C228.387 221.711 230.136 219.103 232.716 217.268C235.296 215.433 238.478 214.459 242.262 214.344C243.122 214.287 243.81 214.487 244.326 214.946C244.842 215.347 245.129 216.064 245.186 217.096C245.243 218.071 245.014 218.845 244.498 219.418C243.982 219.991 243.179 220.335 242.09 220.45L240.714 220.622C236.815 220.966 233.805 222.227 231.684 224.406C229.62 226.527 228.588 229.451 228.588 233.178V253.99C228.588 255.137 228.273 256.025 227.642 256.656C227.069 257.287 226.209 257.602 225.062 257.602ZM269.226 257.774C265.156 257.774 261.63 256.885 258.648 255.108C255.667 253.331 253.345 250.837 251.682 247.626C250.077 244.358 249.274 240.517 249.274 236.102C249.274 232.777 249.733 229.795 250.65 227.158C251.568 224.463 252.915 222.17 254.692 220.278C256.47 218.386 258.562 216.953 260.97 215.978C263.436 214.946 266.188 214.43 269.226 214.43C273.297 214.43 276.823 215.319 279.804 217.096C282.786 218.873 285.079 221.396 286.684 224.664C288.347 227.875 289.178 231.687 289.178 236.102C289.178 239.427 288.72 242.409 287.802 245.046C286.885 247.683 285.538 249.977 283.76 251.926C281.983 253.818 279.862 255.28 277.396 256.312C274.988 257.287 272.265 257.774 269.226 257.774ZM269.226 252.184C271.806 252.184 274.071 251.553 276.02 250.292C277.97 249.031 279.46 247.196 280.492 244.788C281.582 242.38 282.126 239.485 282.126 236.102C282.126 230.885 280.951 226.9 278.6 224.148C276.307 221.396 273.182 220.02 269.226 220.02C266.589 220.02 264.296 220.651 262.346 221.912C260.454 223.116 258.964 224.922 257.874 227.33C256.842 229.681 256.326 232.605 256.326 236.102C256.326 241.262 257.502 245.247 259.852 248.056C262.203 250.808 265.328 252.184 269.226 252.184ZM315.992 257.774C312.724 257.774 309.972 257.201 307.736 256.054C305.557 254.85 303.923 253.13 302.834 250.894C301.744 248.601 301.2 245.82 301.2 242.552V220.622H295.438C294.463 220.622 293.718 220.393 293.202 219.934C292.686 219.418 292.428 218.73 292.428 217.87C292.428 217.01 292.686 216.351 293.202 215.892C293.718 215.433 294.463 215.204 295.438 215.204H301.2V205.314C301.2 204.167 301.515 203.307 302.146 202.734C302.776 202.103 303.636 201.788 304.726 201.788C305.815 201.788 306.646 202.103 307.22 202.734C307.85 203.307 308.166 204.167 308.166 205.314V215.204H319.002C319.976 215.204 320.722 215.433 321.238 215.892C321.754 216.351 322.012 217.01 322.012 217.87C322.012 218.73 321.754 219.418 321.238 219.934C320.722 220.393 319.976 220.622 319.002 220.622H308.166V241.864C308.166 245.132 308.854 247.626 310.23 249.346C311.606 251.009 313.842 251.84 316.938 251.84C318.027 251.84 318.944 251.725 319.69 251.496C320.492 251.267 321.152 251.152 321.668 251.152C322.184 251.095 322.614 251.267 322.958 251.668C323.302 252.069 323.474 252.757 323.474 253.732C323.474 254.42 323.33 255.051 323.044 255.624C322.814 256.197 322.384 256.599 321.754 256.828C321.066 257.057 320.148 257.258 319.002 257.43C317.912 257.659 316.909 257.774 315.992 257.774Z" fill="#FFFFFF"/>
    <path d="M411.694 257.774C408.827 257.774 406.247 257.229 403.954 256.14C401.718 254.993 399.941 253.445 398.622 251.496C397.303 249.547 396.644 247.368 396.644 244.96C396.644 241.864 397.418 239.427 398.966 237.65C400.571 235.873 403.18 234.611 406.792 233.866C410.461 233.121 415.449 232.748 421.756 232.748H425.626V237.306H421.842C417.198 237.306 413.529 237.535 410.834 237.994C408.197 238.395 406.333 239.112 405.244 240.144C404.212 241.176 403.696 242.638 403.696 244.53C403.696 246.881 404.499 248.801 406.104 250.292C407.767 251.783 410.003 252.528 412.812 252.528C415.105 252.528 417.112 251.983 418.832 250.894C420.609 249.805 421.985 248.314 422.96 246.422C423.992 244.53 424.508 242.351 424.508 239.886V230.082C424.508 226.527 423.791 223.976 422.358 222.428C420.925 220.823 418.574 220.02 415.306 220.02C413.299 220.02 411.293 220.278 409.286 220.794C407.279 221.31 405.158 222.141 402.922 223.288C402.119 223.689 401.431 223.833 400.858 223.718C400.285 223.546 399.826 223.231 399.482 222.772C399.138 222.313 398.937 221.797 398.88 221.224C398.823 220.593 398.937 219.991 399.224 219.418C399.568 218.845 400.084 218.386 400.772 218.042C403.295 216.781 405.789 215.863 408.254 215.29C410.719 214.717 413.07 214.43 415.306 214.43C418.918 214.43 421.899 215.032 424.25 216.236C426.601 217.383 428.349 219.16 429.496 221.568C430.643 223.919 431.216 226.957 431.216 230.684V253.99C431.216 255.137 430.929 256.025 430.356 256.656C429.84 257.287 429.066 257.602 428.034 257.602C426.945 257.602 426.113 257.287 425.54 256.656C424.967 256.025 424.68 255.137 424.68 253.99V247.282H425.454C424.995 249.461 424.107 251.324 422.788 252.872C421.527 254.42 419.95 255.624 418.058 256.484C416.166 257.344 414.045 257.774 411.694 257.774ZM447.666 257.602C446.519 257.602 445.63 257.287 445 256.656C444.426 256.025 444.14 255.137 444.14 253.99V218.128C444.14 216.981 444.426 216.121 445 215.548C445.573 214.917 446.404 214.602 447.494 214.602C448.583 214.602 449.414 214.917 449.988 215.548C450.618 216.121 450.934 216.981 450.934 218.128V225.094H450.074C450.991 221.711 452.74 219.103 455.32 217.268C457.9 215.433 461.082 214.459 464.866 214.344C465.726 214.287 466.414 214.487 466.93 214.946C467.446 215.347 467.732 216.064 467.79 217.096C467.847 218.071 467.618 218.845 467.102 219.418C466.586 219.991 465.783 220.335 464.694 220.45L463.318 220.622C459.419 220.966 456.409 222.227 454.288 224.406C452.224 226.527 451.192 229.451 451.192 233.178V253.99C451.192 255.137 450.876 256.025 450.246 256.656C449.672 257.287 448.812 257.602 447.666 257.602Z" fill="#FFFFFF"/>
    <circle cx="270" cy="236" r="22" fill="#0A5394" stroke="#FBFEFF" stroke-width="6"/>
</svg>