<svg xmlns="http://www.w3.org/2000/svg" viewBox="0 0 294.2 169.83"><defs><style>.cls-1{fill:#d78a89;}.cls-2{fill:#d72525;}.cls-3{fill:#c8cfdd;}.cls-4{fill:#8caefa;}.cls-5{fill:#b0c2e9;}.cls-6{fill:#d79494;}.cls-7{fill:#d74d4d;}.cls-8{fill:#d60203;}.cls-9{fill:#d68686;}.cls-10{fill:#8daffa;}.cls-11{fill:#d73131;}.cls-12{fill:#d69898;}.cls-13{fill:#d74646;}.cls-14{fill:#d6d6d6;}.cls-15{fill:#d6bcbc;}.cls-16{fill:#8faef7;}.cls-17{font-size:90px;}.cls-17,.cls-20,.cls-21,.cls-22{font-family:HelveticaNeue-UltraLight, Helvetica Neue;font-weight:100;}.cls-18{fill:none;}.cls-19{font-size:21px;font-family:HelveticaNeue, Helvetica Neue;}.cls-21{letter-spacing:0.02em;}.cls-22{letter-spacing:0em;}</style></defs><g id="Layer_2" data-name="Layer 2"><g id="Layer_1-2" data-name="Layer 1"><rect class="cls-1" x="72.38" y="13" width="13" height="13"></rect><rect class="cls-2" x="85.38" y="26" width="13" height="13"></rect><rect class="cls-3" x="98.38" y="13" width="13" height="13"></rect><rect class="cls-4" x="98.38" width="13" height="13"></rect><rect class="cls-5" x="111.38" y="26" width="13" height="13"></rect><rect class="cls-6" x="124.38" y="26" width="13" height="13"></rect><rect class="cls-7" x="137.38" y="13" width="13" height="13"></rect><rect class="cls-8" x="124.38" width="13" height="13"></rect><rect class="cls-9" x="137.38" width="13" height="13"></rect><rect class="cls-10" x="150.38" y="13" width="13" height="13"></rect><rect class="cls-11" x="163.38" width="13" height="13"></rect><rect class="cls-12" x="176.38" y="13" width="13" height="13"></rect><rect class="cls-13" x="176.38" y="26" width="13" height="13"></rect><rect class="cls-14" x="189.38" y="13" width="13" height="13"></rect><rect class="cls-15" x="111.38" y="13" width="13" height="13"></rect><rect class="cls-16" x="202.38" width="13" height="13"></rect><text class="cls-17" transform="translate(80.36 106)">eve</text><line class="cls-18" x1="91.88" y1="88.5" x2="91.88" y2="146.5"></line><text class="cls-19" transform="translate(5.98 137.05)">e<tspan class="cls-20" x="11.28" y="0">volutiona</tspan><tspan class="cls-21" x="83.24" y="0">r</tspan><tspan class="cls-20" x="89.06" y="0">y model of </tspan><tspan x="182.05" y="0">v</tspan><tspan class="cls-22" x="192.55" y="0">ariant </tspan><tspan x="242.32" y="0">e</tspan><tspan class="cls-20" x="253.59" y="0">ffect</tspan></text></g></g></svg>